<svg xmlns="http://www.w3.org/2000/svg" viewBox="0 0 60 60"><defs><style>.cls-1,.cls-2,.cls-3,.cls-4,.cls-5,.cls-6,.cls-7{fill:none;}.cls-1{stroke:#545454;}.cls-1,.cls-2,.cls-3,.cls-4,.cls-6,.cls-7{stroke-linecap:round;}.cls-1,.cls-6{stroke-miterlimit:10;}.cls-1,.cls-4,.cls-7{stroke-width:1.6px;}.cls-2,.cls-6,.cls-7{stroke:#42af6f;}.cls-2,.cls-3,.cls-4,.cls-7{stroke-linejoin:round;}.cls-2,.cls-3{stroke-width:1.5px;}.cls-3{stroke:#e10000;}.cls-4{stroke:#f6bf66;}.cls-6{stroke-width:1.47px;}</style></defs><title>lineicon_testrail-result</title><g id="Ebene_2" data-name="Ebene 2"><g id="Ebene_1-2" data-name="Ebene 1"><path class="cls-1" d="M59.18,36.22V3.55a2.5,2.5,0,0,0-2.5-2.5H3.32a2.5,2.5,0,0,0-2.5,2.5V49.71H33.71"/><line class="cls-1" x1="0.82" y1="9.01" x2="59.18" y2="9.01"/><line class="cls-1" x1="45.68" y1="5.16" x2="45.64" y2="5.16"/><line class="cls-1" x1="49.94" y1="5.16" x2="49.9" y2="5.16"/><line class="cls-1" x1="54.07" y1="5.16" x2="54.03" y2="5.16"/><rect class="cls-2" x="4.78" y="39.56" width="5.81" height="5.81"/><rect class="cls-2" x="13.72" y="39.56" width="5.81" height="5.81"/><rect class="cls-3" x="22.85" y="39.56" width="5.81" height="5.81"/><rect class="cls-2" x="4.78" y="31.01" width="5.81" height="5.81"/><rect class="cls-4" x="13.72" y="31.01" width="5.81" height="5.81"/><rect class="cls-2" x="4.78" y="22.45" width="5.81" height="5.81"/><rect class="cls-5" width="60" height="60"/><circle class="cls-6" cx="47.62" cy="46.61" r="11.22"/><polyline class="cls-7" points="40.29 47.59 44.57 51.86 54.39 42.04"/></g></g></svg>